<?xml version="1.0" standalone="no"?>
<!DOCTYPE svg PUBLIC "-//W3C//DTD SVG 20010904//EN"
 "http://www.w3.org/TR/2001/REC-SVG-20010904/DTD/svg10.dtd">
<svg version="1.0" xmlns="http://www.w3.org/2000/svg"
 width="260.000000pt" height="260.000000pt" viewBox="0 0 260.000000 260.000000"
 preserveAspectRatio="xMidYMid meet">
<metadata>
Created by potrace 1.11, written by Peter Selinger 2001-2013
</metadata>
<g transform="translate(0.000000,260.000000) scale(0.100000,-0.100000)"
fill="#000000" stroke="none">
<path d="M0 1300 l0 -1300 1300 0 1300 0 0 1300 0 1300 -1300 0 -1300 0 0
-1300z m390 600 l0 -260 -30 0 -30 0 0 260 0 260 30 0 30 0 0 -260z m190 220
c0 -38 -2 -40 -30 -40 -28 0 -30 2 -30 40 0 38 2 40 30 40 28 0 30 -2 30 -40z
m632 -109 l3 -150 89 80 c77 68 93 79 125 79 l36 -1 -95 -89 -95 -89 100 -100
100 -101 -40 0 c-37 0 -47 7 -132 92 l-93 93 0 -93 0 -92 -30 0 -30 0 0 260 0
260 30 0 29 0 3 -149z m1058 -111 l0 -260 -30 0 c-26 0 -30 4 -30 27 l0 27
-31 -30 c-26 -25 -38 -29 -87 -29 -106 0 -157 64 -157 195 0 116 44 183 129
197 46 7 78 -2 115 -33 l31 -26 0 96 0 96 30 0 30 0 0 -260z m-1311 116 c58
-30 66 -56 69 -223 l4 -153 -31 0 -31 0 0 133 c0 85 -5 141 -13 157 -32 64
-121 65 -164 1 -21 -31 -23 -45 -23 -162 l0 -129 -30 0 -30 0 0 190 0 190 30
0 c26 0 30 -4 30 -27 l0 -26 23 21 c44 42 115 54 166 28z m828 -12 c45 -34 64
-68 70 -127 l6 -57 -142 0 c-156 0 -154 1 -127 -65 22 -53 69 -77 137 -72 31
3 70 12 88 22 l32 16 -3 -33 c-3 -30 -7 -34 -53 -46 -109 -28 -223 6 -261 79
-36 70 -27 187 18 244 50 63 175 84 235 39z m-1207 -174 l0 -190 -30 0 -30 0
0 190 0 190 30 0 30 0 0 -190z m328 -507 c75 -30 113 -62 147 -124 27 -49 30
-63 30 -144 0 -81 -3 -95 -30 -144 -59 -107 -139 -142 -337 -149 l-138 -4 0
-154 0 -154 -115 0 -115 0 0 451 0 451 253 -4 c230 -3 257 -5 305 -25z m736
-208 c55 -129 102 -235 106 -235 3 0 50 106 105 235 l99 235 148 0 148 0 0
-450 0 -450 -110 0 -110 0 0 328 -1 327 -102 -242 -102 -243 -75 0 -75 0 -102
243 -102 242 -1 -327 0 -328 -110 0 -110 0 0 450 0 450 148 0 148 0 98 -235z"/>
<path d="M2064 1971 c-72 -31 -86 -194 -23 -262 26 -28 34 -31 72 -26 72 10
109 84 93 190 -12 79 -79 125 -142 98z"/>
<path d="M1634 1961 c-25 -15 -54 -63 -54 -87 0 -2 50 -4 110 -4 119 0 122 2
98 55 -24 53 -98 70 -154 36z"/>
<path d="M580 1055 l0 -135 80 0 c48 0 95 6 115 14 98 41 98 201 0 242 -20 8
-67 14 -115 14 l-80 0 0 -135z"/>
</g>
</svg>
